<svg xmlns="http://www.w3.org/2000/svg" viewBox="100 50 1000 530" role="img" aria-label="V8 Engine with isolated execution chambers">
  <defs>
    <!-- Background gradients -->
    <linearGradient id="bgGradient" x1="0" y1="0" x2="1" y2="1">
      <stop offset="0" stop-color="#0f172a" />
      <stop offset="1" stop-color="#1e293b" />
    </linearGradient>
    <radialGradient id="bgGlow" cx="0.5" cy="0.45" r="0.65">
      <stop offset="0" stop-color="#1e3a8a" stop-opacity="0.15" />
      <stop offset="1" stop-color="#0f172a" stop-opacity="0" />
    </radialGradient>
    
    <!-- V8 Engine container gradient -->
    <linearGradient id="engineGradient" x1="0" y1="0" x2="0" y2="1">
      <stop offset="0" stop-color="#1e40af" stop-opacity="0.25" />
      <stop offset="1" stop-color="#3730a3" stop-opacity="0.15" />
    </linearGradient>
    
    <!-- Isolate chamber gradients -->
    <linearGradient id="isolateGradient1" x1="0" y1="0" x2="1" y2="1">
      <stop offset="0" stop-color="#06b6d4" stop-opacity="0.3" />
      <stop offset="1" stop-color="#0891b2" stop-opacity="0.1" />
    </linearGradient>
    <linearGradient id="isolateGradient2" x1="0" y1="0" x2="1" y2="1">
      <stop offset="0" stop-color="#8b5cf6" stop-opacity="0.3" />
      <stop offset="1" stop-color="#7c3aed" stop-opacity="0.1" />
    </linearGradient>
    <linearGradient id="isolateGradient3" x1="0" y1="0" x2="1" y2="1">
      <stop offset="0" stop-color="#f59e0b" stop-opacity="0.3" />
      <stop offset="1" stop-color="#d97706" stop-opacity="0.1" />
    </linearGradient>
    
    <!-- Glow effects -->
    <radialGradient id="isolateGlow1" cx="0.5" cy="0.5" r="0.7">
      <stop offset="0" stop-color="#06b6d4" stop-opacity="0.4" />
      <stop offset="1" stop-color="#06b6d4" stop-opacity="0" />
    </radialGradient>
    <radialGradient id="isolateGlow2" cx="0.5" cy="0.5" r="0.7">
      <stop offset="0" stop-color="#8b5cf6" stop-opacity="0.4" />
      <stop offset="1" stop-color="#8b5cf6" stop-opacity="0" />
    </radialGradient>
    <radialGradient id="isolateGlow3" cx="0.5" cy="0.5" r="0.7">
      <stop offset="0" stop-color="#f59e0b" stop-opacity="0.4" />
      <stop offset="1" stop-color="#f59e0b" stop-opacity="0" />
    </radialGradient>
    
    <!-- Lock icon gradient -->
    <linearGradient id="lockGradient" x1="0" y1="0" x2="0" y2="1">
      <stop offset="0" stop-color="#10b981" />
      <stop offset="1" stop-color="#059669" />
    </linearGradient>
  </defs>

  <!-- Background -->
  <rect width="1200" height="630" rx="36" fill="url(#bgGradient)" />
  <rect width="1200" height="630" rx="36" fill="url(#bgGlow)" />

  <!-- Subtle grid pattern -->
  <g stroke="#334155" stroke-width="0.5" opacity="0.15">
    <line x1="300" y1="0" x2="300" y2="630" />
    <line x1="600" y1="0" x2="600" y2="630" />
    <line x1="900" y1="0" x2="900" y2="630" />
    <line x1="0" y1="210" x2="1200" y2="210" />
    <line x1="0" y1="420" x2="1200" y2="420" />
  </g>

  <!-- Main V8 Engine Container -->
  <g transform="translate(200, 120)">
    <!-- Outer engine housing -->
    <rect x="0" y="0" width="800" height="390" rx="12" 
          fill="url(#engineGradient)" 
          stroke="#3b82f6" stroke-width="2" stroke-opacity="0.4" />
    
    <!-- Engine label -->
    <text x="400" y="35" text-anchor="middle" 
          fill="#e2e8f0" font-family="'Inter', 'Geist', 'Segoe UI', sans-serif" 
          font-size="18" font-weight="600" letter-spacing="0.2em">
      V8 ENGINE
    </text>
    <text x="400" y="55" text-anchor="middle" 
          fill="#94a3b8" font-family="'Inter', 'Geist', 'Segoe UI', sans-serif" 
          font-size="11" letter-spacing="0.15em">
      NODE.JS PROCESS
    </text>

    <!-- Isolate Chamber 1 -->
    <g transform="translate(60, 100)">
      <!-- Glow -->
      <rect x="-10" y="-10" width="200" height="240" rx="8" fill="url(#isolateGlow1)" />
      
      <!-- Chamber -->
      <rect x="0" y="0" width="180" height="220" rx="6" 
            fill="url(#isolateGradient1)" 
            stroke="#06b6d4" stroke-width="2" stroke-opacity="0.6" />
      
      <!-- Lock icon -->
      <g transform="translate(145, 15)">
        <circle cx="0" cy="0" r="12" fill="url(#lockGradient)" opacity="0.8" />
        <path d="M-4 -2 L-4 2 L4 2 L4 -2 Z M-3 -2 L-3 -5 Q-3 -7 0 -7 Q3 -7 3 -5 L3 -2" 
              fill="none" stroke="#ffffff" stroke-width="1.5" stroke-linecap="round" />
      </g>
      
      <!-- Labels -->
      <text x="90" y="50" text-anchor="middle" 
            fill="#e0f2fe" font-family="'Inter', 'Geist', 'Segoe UI', sans-serif" 
            font-size="14" font-weight="600">
        ISOLATE A
      </text>
      <text x="90" y="70" text-anchor="middle" 
            fill="#67e8f9" font-family="monospace" font-size="10" opacity="0.8">
        User Code 1
      </text>
      
      <!-- Memory representation -->
      <g transform="translate(20, 90)" opacity="0.6">
        <rect x="0" y="0" width="140" height="4" rx="2" fill="#0ea5e9" opacity="0.3" />
        <rect x="0" y="0" width="95" height="4" rx="2" fill="#06b6d4" />
        <text x="0" y="18" fill="#94a3b8" font-family="'Inter', 'Segoe UI', sans-serif" font-size="9">
          Heap: 64MB
        </text>
      </g>
      
      <!-- Garbage collector indicator -->
      <g transform="translate(20, 130)" opacity="0.5">
        <circle cx="4" cy="4" r="3" fill="#10b981" />
        <text x="12" y="8" fill="#94a3b8" font-family="'Inter', 'Segoe UI', sans-serif" font-size="9">
          GC Active
        </text>
      </g>
    </g>

    <!-- Isolate Chamber 2 -->
    <g transform="translate(310, 100)">
      <!-- Glow -->
      <rect x="-10" y="-10" width="200" height="240" rx="8" fill="url(#isolateGlow2)" />
      
      <!-- Chamber -->
      <rect x="0" y="0" width="180" height="220" rx="6" 
            fill="url(#isolateGradient2)" 
            stroke="#8b5cf6" stroke-width="2" stroke-opacity="0.6" />
      
      <!-- Lock icon -->
      <g transform="translate(145, 15)">
        <circle cx="0" cy="0" r="12" fill="url(#lockGradient)" opacity="0.8" />
        <path d="M-4 -2 L-4 2 L4 2 L4 -2 Z M-3 -2 L-3 -5 Q-3 -7 0 -7 Q3 -7 3 -5 L3 -2" 
              fill="none" stroke="#ffffff" stroke-width="1.5" stroke-linecap="round" />
      </g>
      
      <!-- Labels -->
      <text x="90" y="50" text-anchor="middle" 
            fill="#ede9fe" font-family="'Inter', 'Geist', 'Segoe UI', sans-serif" 
            font-size="14" font-weight="600">
        ISOLATE B
      </text>
      <text x="90" y="70" text-anchor="middle" 
            fill="#c4b5fd" font-family="monospace" font-size="10" opacity="0.8">
        User Code 2
      </text>
      
      <!-- Memory representation -->
      <g transform="translate(20, 90)" opacity="0.6">
        <rect x="0" y="0" width="140" height="4" rx="2" fill="#a78bfa" opacity="0.3" />
        <rect x="0" y="0" width="110" height="4" rx="2" fill="#8b5cf6" />
        <text x="0" y="18" fill="#94a3b8" font-family="'Inter', 'Segoe UI', sans-serif" font-size="9">
          Heap: 78MB
        </text>
      </g>
      
      <!-- Garbage collector indicator -->
      <g transform="translate(20, 130)" opacity="0.5">
        <circle cx="4" cy="4" r="3" fill="#10b981" />
        <text x="12" y="8" fill="#94a3b8" font-family="'Inter', 'Segoe UI', sans-serif" font-size="9">
          GC Active
        </text>
      </g>
    </g>

    <!-- Isolate Chamber 3 -->
    <g transform="translate(560, 100)">
      <!-- Glow -->
      <rect x="-10" y="-10" width="200" height="240" rx="8" fill="url(#isolateGlow3)" />
      
      <!-- Chamber -->
      <rect x="0" y="0" width="180" height="220" rx="6" 
            fill="url(#isolateGradient3)" 
            stroke="#f59e0b" stroke-width="2" stroke-opacity="0.6" />
      
      <!-- Lock icon -->
      <g transform="translate(145, 15)">
        <circle cx="0" cy="0" r="12" fill="url(#lockGradient)" opacity="0.8" />
        <path d="M-4 -2 L-4 2 L4 2 L4 -2 Z M-3 -2 L-3 -5 Q-3 -7 0 -7 Q3 -7 3 -5 L3 -2" 
              fill="none" stroke="#ffffff" stroke-width="1.5" stroke-linecap="round" />
      </g>
      
      <!-- Labels -->
      <text x="90" y="50" text-anchor="middle" 
            fill="#fef3c7" font-family="'Inter', 'Geist', 'Segoe UI', sans-serif" 
            font-size="14" font-weight="600">
        ISOLATE C
      </text>
      <text x="90" y="70" text-anchor="middle" 
            fill="#fcd34d" font-family="monospace" font-size="10" opacity="0.8">
        User Code 3
      </text>
      
      <!-- Memory representation -->
      <g transform="translate(20, 90)" opacity="0.6">
        <rect x="0" y="0" width="140" height="4" rx="2" fill="#fbbf24" opacity="0.3" />
        <rect x="0" y="0" width="70" height="4" rx="2" fill="#f59e0b" />
        <text x="0" y="18" fill="#94a3b8" font-family="'Inter', 'Segoe UI', sans-serif" font-size="9">
          Heap: 42MB
        </text>
      </g>
      
      <!-- Garbage collector indicator -->
      <g transform="translate(20, 130)" opacity="0.5">
        <circle cx="4" cy="4" r="3" fill="#10b981" />
        <text x="12" y="8" fill="#94a3b8" font-family="'Inter', 'Segoe UI', sans-serif" font-size="9">
          GC Active
        </text>
      </g>
    </g>

    <!-- Separation indicators between isolates -->
    <g opacity="0.3" stroke="#64748b" stroke-width="1" stroke-dasharray="4 6">
      <line x1="260" y1="110" x2="260" y2="310" />
      <line x1="510" y1="110" x2="510" y2="310" />
    </g>

    <!-- Bottom performance metrics -->
    <g transform="translate(20, 350)" opacity="0.7">
      <text x="0" y="0" fill="#94a3b8" font-family="'Inter', 'Geist', 'Segoe UI', sans-serif" 
            font-size="10" letter-spacing="0.05em">
        ⚡ Startup: &lt; 5ms  •  🔒 Memory Isolated  •  🚀 Concurrent Execution
      </text>
    </g>
  </g>

  <!-- Title overlay at bottom -->
  <g transform="translate(600, 570)">
    <text x="0" y="0" text-anchor="middle" 
          fill="#f8fafc" font-family="'Inter', 'Geist', 'Segoe UI', sans-serif" 
          font-size="22" font-weight="700" letter-spacing="0.02em">
      V8 ISOLATES
    </text>
    <text x="0" y="25" text-anchor="middle" 
          fill="#cbd5e1" font-family="'Inter', 'Geist', 'Segoe UI', sans-serif" 
          font-size="13" letter-spacing="0.1em" opacity="0.8">
      SECURE • FAST • ISOLATED
    </text>
  </g>
</svg>
