<svg xmlns="http://www.w3.org/2000/svg" viewBox="0 0 1200 630" fill="none">
  <defs>
    <linearGradient id="shikiGradient" x1="0" y1="0" x2="1" y2="1">
      <stop offset="0" stop-color="#9333EA" />
      <stop offset="1" stop-color="#F97316" />
    </linearGradient>
    <linearGradient id="codeGlare" x1="0" y1="0" x2="0" y2="1">
      <stop offset="0" stop-color="#FFFFFF" stop-opacity="0.45" />
      <stop offset="1" stop-color="#FFFFFF" stop-opacity="0" />
    </linearGradient>
  </defs>
  <rect width="1200" height="630" rx="48" fill="#0F172A" />
  <rect x="120" y="120" width="960" height="390" rx="28" fill="url(#shikiGradient)" fill-opacity="0.2" />
  <rect x="120" y="120" width="960" height="390" rx="28" fill="url(#codeGlare)" fill-opacity="0.6" />
  <g stroke="#F8FAFC" stroke-opacity="0.35" stroke-width="4">
    <path d="M240 204h720" />
    <path d="M240 252h720" />
    <path d="M240 300h720" />
    <path d="M240 348h720" />
    <path d="M240 396h720" />
  </g>
  <g fill="#F8FAFC" fill-opacity="0.85">
    <rect x="280" y="212" width="120" height="12" rx="6" />
    <rect x="440" y="212" width="80" height="12" rx="6" />
    <rect x="280" y="260" width="340" height="12" rx="6" />
    <rect x="280" y="308" width="500" height="12" rx="6" />
    <rect x="280" y="356" width="420" height="12" rx="6" />
  </g>
</svg>
