<svg id="my-svg" width="100%" xmlns="http://www.w3.org/2000/svg" xmlns:xlink="http://www.w3.org/1999/xlink" class="flowchart" style="max-width: 1093.27px; background-color: rgb(255, 255, 255);" viewBox="0 0 1093.265625 220" role="graphics-document document" aria-roledescription="flowchart-v2"><style>#my-svg{font-family:"trebuchet ms",verdana,arial,sans-serif;font-size:16px;fill:#333;}@keyframes edge-animation-frame{from{stroke-dashoffset:0;}}@keyframes dash{to{stroke-dashoffset:0;}}#my-svg .edge-animation-slow{stroke-dasharray:9,5!important;stroke-dashoffset:900;animation:dash 50s linear infinite;stroke-linecap:round;}#my-svg .edge-animation-fast{stroke-dasharray:9,5!important;stroke-dashoffset:900;animation:dash 20s linear infinite;stroke-linecap:round;}#my-svg .error-icon{fill:#552222;}#my-svg .error-text{fill:#552222;stroke:#552222;}#my-svg .edge-thickness-normal{stroke-width:1px;}#my-svg .edge-thickness-thick{stroke-width:3.5px;}#my-svg .edge-pattern-solid{stroke-dasharray:0;}#my-svg .edge-thickness-invisible{stroke-width:0;fill:none;}#my-svg .edge-pattern-dashed{stroke-dasharray:3;}#my-svg .edge-pattern-dotted{stroke-dasharray:2;}#my-svg .marker{fill:#333333;stroke:#333333;}#my-svg .marker.cross{stroke:#333333;}#my-svg svg{font-family:"trebuchet ms",verdana,arial,sans-serif;font-size:16px;}#my-svg p{margin:0;}#my-svg .label{font-family:"trebuchet ms",verdana,arial,sans-serif;color:#333;}#my-svg .cluster-label text{fill:#333;}#my-svg .cluster-label span{color:#333;}#my-svg .cluster-label span p{background-color:transparent;}#my-svg .label text,#my-svg span{fill:#333;color:#333;}#my-svg .node rect,#my-svg .node circle,#my-svg .node ellipse,#my-svg .node polygon,#my-svg .node path{fill:#ECECFF;stroke:#9370DB;stroke-width:1px;}#my-svg .rough-node .label text,#my-svg .node .label text,#my-svg .image-shape .label,#my-svg .icon-shape .label{text-anchor:middle;}#my-svg .node .katex path{fill:#000;stroke:#000;stroke-width:1px;}#my-svg .rough-node .label,#my-svg .node .label,#my-svg .image-shape .label,#my-svg .icon-shape .label{text-align:center;}#my-svg .node.clickable{cursor:pointer;}#my-svg .root .anchor path{fill:#333333!important;stroke-width:0;stroke:#333333;}#my-svg .arrowheadPath{fill:#333333;}#my-svg .edgePath .path{stroke:#333333;stroke-width:2.0px;}#my-svg .flowchart-link{stroke:#333333;fill:none;}#my-svg .edgeLabel{background-color:rgba(232,232,232, 0.8);text-align:center;}#my-svg .edgeLabel p{background-color:rgba(232,232,232, 0.8);}#my-svg .edgeLabel rect{opacity:0.5;background-color:rgba(232,232,232, 0.8);fill:rgba(232,232,232, 0.8);}#my-svg .labelBkg{background-color:rgba(232, 232, 232, 0.5);}#my-svg .cluster rect{fill:#ffffde;stroke:#aaaa33;stroke-width:1px;}#my-svg .cluster text{fill:#333;}#my-svg .cluster span{color:#333;}#my-svg div.mermaidTooltip{position:absolute;text-align:center;max-width:200px;padding:2px;font-family:"trebuchet ms",verdana,arial,sans-serif;font-size:12px;background:hsl(80, 100%, 96.2745098039%);border:1px solid #aaaa33;border-radius:2px;pointer-events:none;z-index:100;}#my-svg .flowchartTitleText{text-anchor:middle;font-size:18px;fill:#333;}#my-svg rect.text{fill:none;stroke-width:0;}#my-svg .icon-shape,#my-svg .image-shape{background-color:rgba(232,232,232, 0.8);text-align:center;}#my-svg .icon-shape p,#my-svg .image-shape p{background-color:rgba(232,232,232, 0.8);padding:2px;}#my-svg .icon-shape rect,#my-svg .image-shape rect{opacity:0.5;background-color:rgba(232,232,232, 0.8);fill:rgba(232,232,232, 0.8);}#my-svg .label-icon{display:inline-block;height:1em;overflow:visible;vertical-align:-0.125em;}#my-svg .node .label-icon path{fill:currentColor;stroke:revert;stroke-width:revert;}#my-svg :root{--mermaid-font-family:"trebuchet ms",verdana,arial,sans-serif;}</style><g><marker id="my-svg_flowchart-v2-pointEnd" class="marker flowchart-v2" viewBox="0 0 10 10" refX="5" refY="5" markerUnits="userSpaceOnUse" markerWidth="8" markerHeight="8" orient="auto"><path d="M 0 0 L 10 5 L 0 10 z" class="arrowMarkerPath" style="stroke-width: 1; stroke-dasharray: 1, 0;"/></marker><marker id="my-svg_flowchart-v2-pointStart" class="marker flowchart-v2" viewBox="0 0 10 10" refX="4.5" refY="5" markerUnits="userSpaceOnUse" markerWidth="8" markerHeight="8" orient="auto"><path d="M 0 5 L 10 10 L 10 0 z" class="arrowMarkerPath" style="stroke-width: 1; stroke-dasharray: 1, 0;"/></marker><marker id="my-svg_flowchart-v2-circleEnd" class="marker flowchart-v2" viewBox="0 0 10 10" refX="11" refY="5" markerUnits="userSpaceOnUse" markerWidth="11" markerHeight="11" orient="auto"><circle cx="5" cy="5" r="5" class="arrowMarkerPath" style="stroke-width: 1; stroke-dasharray: 1, 0;"/></marker><marker id="my-svg_flowchart-v2-circleStart" class="marker flowchart-v2" viewBox="0 0 10 10" refX="-1" refY="5" markerUnits="userSpaceOnUse" markerWidth="11" markerHeight="11" orient="auto"><circle cx="5" cy="5" r="5" class="arrowMarkerPath" style="stroke-width: 1; stroke-dasharray: 1, 0;"/></marker><marker id="my-svg_flowchart-v2-crossEnd" class="marker cross flowchart-v2" viewBox="0 0 11 11" refX="12" refY="5.2" markerUnits="userSpaceOnUse" markerWidth="11" markerHeight="11" orient="auto"><path d="M 1,1 l 9,9 M 10,1 l -9,9" class="arrowMarkerPath" style="stroke-width: 2; stroke-dasharray: 1, 0;"/></marker><marker id="my-svg_flowchart-v2-crossStart" class="marker cross flowchart-v2" viewBox="0 0 11 11" refX="-1" refY="5.2" markerUnits="userSpaceOnUse" markerWidth="11" markerHeight="11" orient="auto"><path d="M 1,1 l 9,9 M 10,1 l -9,9" class="arrowMarkerPath" style="stroke-width: 2; stroke-dasharray: 1, 0;"/></marker><g class="root"><g class="clusters"><g class="cluster" id="Internet" data-look="classic"><rect style="" x="514.0625" y="8" width="571.203125" height="204"/><g class="cluster-label" transform="translate(770.515625, 8)"><foreignObject width="58.296875" height="24"><div xmlns="http://www.w3.org/1999/xhtml" style="display: table-cell; white-space: nowrap; line-height: 1.5; max-width: 200px; text-align: center;"><span class="nodeLabel"><p>Internet</p></span></div></foreignObject></g></g><g class="cluster" id="subGraph0" data-look="classic"><rect style="" x="8" y="34" width="259.359375" height="153"/><g class="cluster-label" transform="translate(66.875, 34)"><foreignObject width="141.609375" height="24"><div xmlns="http://www.w3.org/1999/xhtml" style="display: table-cell; white-space: nowrap; line-height: 1.5; max-width: 200px; text-align: center;"><span class="nodeLabel"><p>Your Home Network</p></span></div></foreignObject></g></g></g><g class="edgePaths"><path d="M242.359,95.241L246.526,94.534C250.693,93.827,259.026,92.414,283.751,91.707C308.477,91,349.594,91,390.711,91C431.828,91,472.945,91,497.112,92.016C521.279,93.031,528.496,95.062,532.104,96.078L535.712,97.093" id="L_Laptop_Router_0" class="edge-thickness-normal edge-pattern-solid edge-thickness-normal edge-pattern-solid flowchart-link" style=";" data-edge="true" data-et="edge" data-id="L_Laptop_Router_0" data-points="W3sieCI6MjQyLjM1OTM3NSwieSI6OTUuMjQxMjE5MzUwNTYzMjh9LHsieCI6MjY3LjM1OTM3NSwieSI6OTF9LHsieCI6MzkwLjcxMDkzNzUsInkiOjkxfSx7IngiOjUxNC4wNjI1LCJ5Ijo5MX0seyJ4Ijo1MzkuNTYyNSwieSI6OTguMTc2NzgzMDA0NTUyMzV9XQ==" marker-end="url(#my-svg_flowchart-v2-pointEnd)"/><path d="M654.313,100.916L675.063,96.263C695.813,91.611,737.313,82.305,778.242,81.624C819.171,80.944,859.529,88.887,879.709,92.859L899.888,96.831" id="L_Router_Website_0" class="edge-thickness-normal edge-pattern-solid edge-thickness-normal edge-pattern-solid flowchart-link" style=";" data-edge="true" data-et="edge" data-id="L_Router_Website_0" data-points="W3sieCI6NjU0LjMxMjUsInkiOjEwMC45MTYwMzgzODI0NTM3M30seyJ4Ijo3NzguODEyNSwieSI6NzN9LHsieCI6OTAzLjgxMjUsInkiOjk3LjYwMzA4MzA3Mzg0Nzd9XQ==" marker-end="url(#my-svg_flowchart-v2-pointEnd)"/><path d="M903.813,128.397L882.979,132.497C862.146,136.598,820.479,144.799,779.547,144.554C738.616,144.31,698.419,135.619,678.321,131.274L658.222,126.929" id="L_Website_Router_0" class="edge-thickness-normal edge-pattern-solid edge-thickness-normal edge-pattern-solid flowchart-link" style=";" data-edge="true" data-et="edge" data-id="L_Website_Router_0" data-points="W3sieCI6OTAzLjgxMjUsInkiOjEyOC4zOTY5MTY5MjYxNTIzfSx7IngiOjc3OC44MTI1LCJ5IjoxNTN9LHsieCI6NjU0LjMxMjUsInkiOjEyNi4wODM5NjE2MTc1NDYyN31d" marker-end="url(#my-svg_flowchart-v2-pointEnd)"/><path d="M539.563,132.306L535.313,133.588C531.063,134.871,522.563,137.435,497.754,138.718C472.945,140,431.828,140,390.711,140C349.594,140,308.477,140,284.404,139.268C260.331,138.537,253.303,137.073,249.789,136.342L246.275,135.61" id="L_Router_Laptop_0" class="edge-thickness-normal edge-pattern-solid edge-thickness-normal edge-pattern-solid flowchart-link" style=";" data-edge="true" data-et="edge" data-id="L_Router_Laptop_0" data-points="W3sieCI6NTM5LjU2MjUsInkiOjEzMi4zMDU3NjYzMTI1OTQ4NH0seyJ4Ijo1MTQuMDYyNSwieSI6MTQwfSx7IngiOjM5MC43MTA5Mzc1LCJ5IjoxNDB9LHsieCI6MjY3LjM1OTM3NSwieSI6MTQwfSx7IngiOjI0Mi4zNTkzNzUsInkiOjEzNC43OTQ4NjcxNjA2NzIzNH1d" marker-end="url(#my-svg_flowchart-v2-pointEnd)"/></g><g class="edgeLabels"><g class="edgeLabel" transform="translate(390.7109375, 91)"><g class="label" data-id="L_Laptop_Router_0" transform="translate(-98.3515625, -12)"><foreignObject width="196.703125" height="24"><div xmlns="http://www.w3.org/1999/xhtml" class="labelBkg" style="display: table-cell; white-space: nowrap; line-height: 1.5; max-width: 200px; text-align: center;"><span class="edgeLabel">1. Request to example.com</span></div></foreignObject></g></g><g class="edgeLabel" transform="translate(778.8125, 73)"><g class="label" data-id="L_Router_Website_0" transform="translate(-100, -36)"><foreignObject width="200" height="72"><div xmlns="http://www.w3.org/1999/xhtml" class="labelBkg" style="display: table; white-space: break-spaces; line-height: 1.5; max-width: 200px; text-align: center; width: 200px;"><span class="edgeLabel">2. Remaps &amp; sends<br />(Source: 203.0.113.1:50000)</span></div></foreignObject></g></g><g class="edgeLabel" transform="translate(778.82326, 152.99788)"><g class="label" data-id="L_Website_Router_0" transform="translate(-100, -24)"><foreignObject width="200" height="48"><div xmlns="http://www.w3.org/1999/xhtml" class="labelBkg" style="display: table; white-space: break-spaces; line-height: 1.5; max-width: 200px; text-align: center; width: 200px;"><span class="edgeLabel">3. Responds to 203.0.113.1:50000</span></div></foreignObject></g></g><g class="edgeLabel" transform="translate(390.7109375, 140)"><g class="label" data-id="L_Router_Laptop_0" transform="translate(-97.6328125, -12)"><foreignObject width="195.265625" height="24"><div xmlns="http://www.w3.org/1999/xhtml" class="labelBkg" style="display: table-cell; white-space: nowrap; line-height: 1.5; max-width: 200px; text-align: center;"><span class="edgeLabel">4. Remaps back &amp; forwards</span></div></foreignObject></g></g></g><g class="nodes"><g class="node default" id="flowchart-Laptop-0" transform="translate(137.6796875, 113)"><rect class="basic label-container" style="" x="-104.6796875" y="-39" width="209.359375" height="78"/><g class="label" style="" transform="translate(-74.6796875, -24)"><rect/><foreignObject width="149.359375" height="48"><div xmlns="http://www.w3.org/1999/xhtml" style="display: table-cell; white-space: nowrap; line-height: 1.5; max-width: 200px; text-align: center;"><span class="nodeLabel"><p>Laptop<br />192.168.1.100:54321</p></span></div></foreignObject></g></g><g class="node default" id="flowchart-Router-1" transform="translate(596.4375, 113)"><g class="basic label-container outer-path"><path d="M-52.375 -39 C-24.819064257691878 -39, 2.7368714846162447 -39, 52.375 -39 C52.375 -39, 52.375 -39, 52.375 -39 C52.460129295174504 -38.99647902630685, 52.545258590349015 -38.992958052613695, 52.78789672736166 -38.98292246503335 C52.87640220431807 -38.971890268835836, 52.964907681274475 -38.960858072638324, 53.19797295140367 -38.93180651701361 C53.33337960291796 -38.903414727847284, 53.46878625443225 -38.87502293868095, 53.602427435703994 -38.84700132969665 C53.75462149907374 -38.80169119388579, 53.90681556244349 -38.756381058074915, 53.99849734602342 -38.729086208503176 C54.10016777341821 -38.689414284627276, 54.20183820081299 -38.64974236075138, 54.383477123264846 -38.57886663327529 C54.49202912413654 -38.525798793708375, 54.60058112500823 -38.47273095414146, 54.754736965185366 -38.39736875603244 C54.85887056422167 -38.33531859936484, 54.96300416325797 -38.273268442697244, 55.109740790612136 -38.185832391312644 C55.18446047568897 -38.13248356157201, 55.25918016076581 -38.07913473183137, 55.44606356344834 -37.94570254698197 C55.562672336705106 -37.8469399539409, 55.67928110996186 -37.74817736089982, 55.761407858128706 -37.67861955336566 C55.871020346117696 -37.56900706537667, 55.980632834106686 -37.45939457738768, 56.05361955336566 -37.386407858128706 C56.13762026791998 -37.287228401866386, 56.2216209824743 -37.188048945604066, 56.32070254698197 -37.07106356344834 C56.38930313212112 -36.974982465838444, 56.45790371726027 -36.87890136822854, 56.560832391312644 -36.734740790612136 C56.63836478027783 -36.60462465330602, 56.71589716924303 -36.4745085159999, 56.77236875603245 -36.379736965185366 C56.81346693674281 -36.295669292849254, 56.85456511745318 -36.21160162051314, 56.95386663327529 -36.008477123264846 C56.99077294132969 -35.91389436178365, 57.027679249384086 -35.81931160030245, 57.104086208503176 -35.62349734602342 C57.132728417294416 -35.5272898626025, 57.161370626085656 -35.43108237918158, 57.22200132969665 -35.227427435703994 C57.25088973877888 -35.08965229520534, 57.27977814786111 -34.95187715470668, 57.30680651701361 -34.82297295140367 C57.319948181944355 -34.717544322155824, 57.3330898468751 -34.612115692907985, 57.35792246503335 -34.41289672736166 C57.362223429541984 -34.30890899297369, 57.366524394050614 -34.20492125858572, 57.375 -34 C57.375 -34, 57.375 -34, 57.375 -34 C57.375 -17.842182319485925, 57.375 -1.68436463897185, 57.375 34 C57.375 34, 57.375 34, 57.375 34 C57.37012911914998 34.11776704110216, 57.365258238299965 34.235534082204325, 57.35792246503335 34.41289672736166 C57.34310725855269 34.53175129560021, 57.32829205207204 34.650605863838756, 57.30680651701361 34.82297295140367 C57.279025965427586 34.955464477226386, 57.25124541384156 35.0879560030491, 57.22200132969665 35.227427435703994 C57.17858543168311 35.37325886647058, 57.135169533669576 35.51909029723717, 57.104086208503176 35.62349734602342 C57.05791414000083 35.741826216410935, 57.01174207149849 35.86015508679844, 56.95386663327529 36.008477123264846 C56.90566075528143 36.10708382277844, 56.857454877287566 36.205690522292045, 56.77236875603245 36.379736965185366 C56.72991978205642 36.450975535286034, 56.68747080808039 36.522214105386695, 56.560832391312644 36.734740790612136 C56.50847691747269 36.80806919418515, 56.45612144363274 36.88139759775817, 56.32070254698197 37.07106356344834 C56.262947814756956 37.139254446931226, 56.20519308253194 37.20744533041412, 56.05361955336566 37.386407858128706 C55.96412424516558 37.475903166328784, 55.87462893696549 37.56539847452887, 55.761407858128706 37.67861955336566 C55.64505213873033 37.77716782072149, 55.52869641933196 37.875716088077326, 55.44606356344834 37.94570254698197 C55.363102773284226 38.00493541265937, 55.28014198312011 38.06416827833677, 55.109740790612136 38.185832391312644 C54.97364537446936 38.266927657120725, 54.83754995832659 38.348022922928806, 54.754736965185366 38.39736875603244 C54.63218821303096 38.45727919035178, 54.50963946087655 38.517189624671104, 54.383477123264846 38.57886663327529 C54.30414575954223 38.60982182745731, 54.22481439581962 38.64077702163934, 53.99849734602342 38.729086208503176 C53.85046029007386 38.77315874958396, 53.702423234124296 38.81723129066476, 53.602427435703994 38.84700132969665 C53.47864826576339 38.872955092357756, 53.35486909582278 38.89890885501887, 53.19797295140367 38.93180651701361 C53.04095816733546 38.95137838943687, 52.88394338326725 38.970950261860125, 52.78789672736166 38.98292246503335 C52.68473956431683 38.98718907685712, 52.581582401271994 38.991455688680894, 52.375 39 C52.375 39, 52.375 39, 52.375 39 C13.310875623776298 39, -25.753248752447405 39, -52.375 39 C-52.375 39, -52.375 39, -52.375 39 C-52.530355771453415 38.99357443776263, -52.68571154290682 38.98714887552527, -52.78789672736166 38.98292246503335 C-52.94495303740447 38.96334541640276, -53.10200934744727 38.943768367772165, -53.19797295140367 38.93180651701361 C-53.31813796958561 38.90661056228586, -53.43830298776754 38.88141460755812, -53.602427435703994 38.84700132969665 C-53.68433187967347 38.82261732024449, -53.76623632364295 38.798233310792334, -53.99849734602342 38.729086208503176 C-54.13305138169106 38.67658306086248, -54.267605417358695 38.62407991322178, -54.383477123264846 38.57886663327529 C-54.48476404462402 38.529350474662344, -54.58605096598319 38.479834316049406, -54.754736965185366 38.39736875603245 C-54.891574281578784 38.31583141363035, -55.02841159797221 38.23429407122825, -55.109740790612136 38.185832391312644 C-55.23759594503697 38.09454556565406, -55.3654510994618 38.00325873999548, -55.44606356344834 37.94570254698197 C-55.523187319968024 37.88038205722619, -55.600311076487706 37.81506156747041, -55.761407858128706 37.67861955336566 C-55.84274223723524 37.59728517425912, -55.924076616341786 37.51595079515258, -56.05361955336566 37.386407858128706 C-56.12735930998272 37.299343492009925, -56.201099066599795 37.212279125891136, -56.32070254698197 37.07106356344834 C-56.371904144827354 36.99935126375897, -56.42310574267274 36.9276389640696, -56.560832391312644 36.734740790612136 C-56.606408026231676 36.65825500641167, -56.65198366115071 36.5817692222112, -56.77236875603244 36.379736965185366 C-56.82712048150233 36.26774052064499, -56.881872206972204 36.15574407610461, -56.95386663327528 36.008477123264846 C-57.007821391656385 35.8702029280998, -57.06177615003749 35.731928732934755, -57.104086208503176 35.62349734602342 C-57.15000852235842 35.46924701284976, -57.195930836213655 35.314996679676106, -57.22200132969665 35.227427435703994 C-57.24586847566015 35.113599797115, -57.269735621623646 34.999772158526, -57.30680651701361 34.82297295140367 C-57.321166377878995 34.70777138027813, -57.33552623874438 34.592569809152586, -57.35792246503335 34.41289672736166 C-57.36262647095529 34.29916435003364, -57.36733047687723 34.185431972705615, -57.375 34 C-57.375 34, -57.375 34, -57.375 34 C-57.375 14.44140660494271, -57.375 -5.11718679011458, -57.375 -34 C-57.375 -34, -57.375 -34, -57.375 -34 C-57.37067649025818 -34.10453282787009, -57.36635298051635 -34.209065655740176, -57.35792246503335 -34.41289672736166 C-57.3458144747882 -34.51003273114959, -57.33370648454305 -34.60716873493752, -57.30680651701361 -34.82297295140367 C-57.28305266562861 -34.93626026337151, -57.25929881424361 -35.049547575339346, -57.22200132969665 -35.227427435703994 C-57.19354583547096 -35.323007755954656, -57.165090341245254 -35.41858807620531, -57.104086208503176 -35.62349734602342 C-57.06006343283563 -35.73631805094373, -57.0160406571681 -35.84913875586403, -56.95386663327529 -36.008477123264846 C-56.90172497611878 -36.115134587734794, -56.849583318962274 -36.22179205220474, -56.77236875603245 -36.379736965185366 C-56.7107596010058 -36.48313046797503, -56.649150445979146 -36.586523970764695, -56.560832391312644 -36.734740790612136 C-56.47033603211657 -36.861488827871895, -56.379839672920504 -36.98823686513165, -56.32070254698197 -37.07106356344834 C-56.263114488782705 -37.13905765528089, -56.20552643058345 -37.207051747113425, -56.05361955336566 -37.386407858128706 C-55.98779944124973 -37.452227970244635, -55.92197932913379 -37.51804808236057, -55.761407858128706 -37.67861955336566 C-55.660396320326804 -37.764171961831664, -55.5593847825249 -37.84972437029767, -55.44606356344834 -37.94570254698197 C-55.33023046507583 -38.028405789602054, -55.21439736670332 -38.11110903222213, -55.109740790612136 -38.185832391312644 C-55.03799123380624 -38.228585847275355, -54.96624167700035 -38.27133930323806, -54.754736965185366 -38.39736875603245 C-54.656186143579575 -38.44554731698173, -54.557635321973784 -38.49372587793101, -54.383477123264846 -38.57886663327528 C-54.29081246890746 -38.61502449360745, -54.19814781455008 -38.651182353939625, -53.99849734602342 -38.729086208503176 C-53.840951767177096 -38.775989559500424, -53.68340618833078 -38.82289291049767, -53.602427435703994 -38.84700132969665 C-53.49812433103495 -38.86887139090886, -53.39382122636591 -38.89074145212106, -53.19797295140367 -38.93180651701361 C-53.072317559204585 -38.94746944531689, -52.94666216700549 -38.96313237362016, -52.78789672736166 -38.98292246503335 C-52.68922161659806 -38.987003697803516, -52.59054650583446 -38.991084930573685, -52.375 -39 C-52.375 -39, -52.375 -39, -52.375 -39" stroke="none" stroke-width="0" fill="#ECECFF" style=""/><path d="M-52.375 -39 C-23.730124839537083 -39, 4.914750320925833 -39, 52.375 -39 M-52.375 -39 C-25.399488990588736 -39, 1.5760220188225276 -39, 52.375 -39 M52.375 -39 C52.375 -39, 52.375 -39, 52.375 -39 M52.375 -39 C52.375 -39, 52.375 -39, 52.375 -39 M52.375 -39 C52.47307093242761 -38.99594375623065, 52.571141864855214 -38.991887512461304, 52.78789672736166 -38.98292246503335 M52.375 -39 C52.47178566056162 -38.99599691546825, 52.568571321123244 -38.9919938309365, 52.78789672736166 -38.98292246503335 M52.78789672736166 -38.98292246503335 C52.948664867659055 -38.96288273724404, 53.10943300795645 -38.94284300945472, 53.19797295140367 -38.93180651701361 M52.78789672736166 -38.98292246503335 C52.94084201333909 -38.9638578550181, 53.09378729931652 -38.944793245002856, 53.19797295140367 -38.93180651701361 M53.19797295140367 -38.93180651701361 C53.319065235376726 -38.90641613509526, 53.44015751934978 -38.88102575317692, 53.602427435703994 -38.84700132969665 M53.19797295140367 -38.93180651701361 C53.32269058435759 -38.9056559793513, 53.447408217311505 -38.879505441689, 53.602427435703994 -38.84700132969665 M53.602427435703994 -38.84700132969665 C53.7192895332095 -38.812209975869315, 53.836151630715 -38.77741862204198, 53.99849734602342 -38.729086208503176 M53.602427435703994 -38.84700132969665 C53.75591911903161 -38.80130487568638, 53.90941080235923 -38.755608421676094, 53.99849734602342 -38.729086208503176 M53.99849734602342 -38.729086208503176 C54.122434360493834 -38.680725835389126, 54.246371374964255 -38.63236546227508, 54.383477123264846 -38.57886663327529 M53.99849734602342 -38.729086208503176 C54.090350553433716 -38.69324497575229, 54.18220376084401 -38.65740374300141, 54.383477123264846 -38.57886663327529 M54.383477123264846 -38.57886663327529 C54.52059084310148 -38.51183582013243, 54.657704562938115 -38.44480500698958, 54.754736965185366 -38.39736875603244 M54.383477123264846 -38.57886663327529 C54.48124582504484 -38.53107042741024, 54.57901452682482 -38.4832742215452, 54.754736965185366 -38.39736875603244 M54.754736965185366 -38.39736875603244 C54.86471899259737 -38.331833692472834, 54.97470102000937 -38.26629862891322, 55.109740790612136 -38.185832391312644 M54.754736965185366 -38.39736875603244 C54.839338573031135 -38.34695713989949, 54.923940180876905 -38.29654552376654, 55.109740790612136 -38.185832391312644 M55.109740790612136 -38.185832391312644 C55.198578406877935 -38.12240355244837, 55.287416023143734 -38.05897471358409, 55.44606356344834 -37.94570254698197 M55.109740790612136 -38.185832391312644 C55.22840037913057 -38.10111107351728, 55.347059967649 -38.01638975572192, 55.44606356344834 -37.94570254698197 M55.44606356344834 -37.94570254698197 C55.51015362014577 -37.89142103787415, 55.5742436768432 -37.83713952876634, 55.761407858128706 -37.67861955336566 M55.44606356344834 -37.94570254698197 C55.551290295336656 -37.85658005123592, 55.656517027224965 -37.76745755548987, 55.761407858128706 -37.67861955336566 M55.761407858128706 -37.67861955336566 C55.865303261167185 -37.57472415032718, 55.96919866420566 -37.4708287472887, 56.05361955336566 -37.386407858128706 M55.761407858128706 -37.67861955336566 C55.8515340735925 -37.588493337901866, 55.94166028905629 -37.498367122438076, 56.05361955336566 -37.386407858128706 M56.05361955336566 -37.386407858128706 C56.14366514701181 -37.280091226609244, 56.23371074065796 -37.17377459508978, 56.32070254698197 -37.07106356344834 M56.05361955336566 -37.386407858128706 C56.134905278568134 -37.29043398373676, 56.216191003770604 -37.19446010934482, 56.32070254698197 -37.07106356344834 M56.32070254698197 -37.07106356344834 C56.39609012984488 -36.96547668408086, 56.471477712707795 -36.85988980471339, 56.560832391312644 -36.734740790612136 M56.32070254698197 -37.07106356344834 C56.390124122218324 -36.97383259766303, 56.45954569745467 -36.876601631877726, 56.560832391312644 -36.734740790612136 M56.560832391312644 -36.734740790612136 C56.62696656495573 -36.62375332675063, 56.693100738598815 -36.512765862889125, 56.77236875603245 -36.379736965185366 M56.560832391312644 -36.734740790612136 C56.61819754548493 -36.63846964023885, 56.67556269965721 -36.54219848986558, 56.77236875603245 -36.379736965185366 M56.77236875603245 -36.379736965185366 C56.83813526593691 -36.24520941895887, 56.90390177584138 -36.110681872732386, 56.95386663327529 -36.008477123264846 M56.77236875603245 -36.379736965185366 C56.83826961587863 -36.244934601760555, 56.90417047572482 -36.11013223833575, 56.95386663327529 -36.008477123264846 M56.95386663327529 -36.008477123264846 C56.99072399437174 -35.91401980208621, 57.0275813554682 -35.819562480907564, 57.104086208503176 -35.62349734602342 M56.95386663327529 -36.008477123264846 C56.987237095430466 -35.92295595821393, 57.020607557585635 -35.83743479316302, 57.104086208503176 -35.62349734602342 M57.104086208503176 -35.62349734602342 C57.13287158299802 -35.52680897748095, 57.16165695749287 -35.43012060893847, 57.22200132969665 -35.227427435703994 M57.104086208503176 -35.62349734602342 C57.142636377344616 -35.49400961144547, 57.181186546186055 -35.36452187686752, 57.22200132969665 -35.227427435703994 M57.22200132969665 -35.227427435703994 C57.25588014157053 -35.065851972944344, 57.289758953444405 -34.90427651018469, 57.30680651701361 -34.82297295140367 M57.22200132969665 -35.227427435703994 C57.25076626014518 -35.090241191812936, 57.279531190593694 -34.95305494792188, 57.30680651701361 -34.82297295140367 M57.30680651701361 -34.82297295140367 C57.326518698394395 -34.66483254275583, 57.34623087977518 -34.50669213410799, 57.35792246503335 -34.41289672736166 M57.30680651701361 -34.82297295140367 C57.32638784547232 -34.665882306562814, 57.345969173931024 -34.50879166172195, 57.35792246503335 -34.41289672736166 M57.35792246503335 -34.41289672736166 C57.36390550623269 -34.26824012816849, 57.36988854743203 -34.12358352897532, 57.375 -34 M57.35792246503335 -34.41289672736166 C57.36338371113464 -34.28085597048767, 57.36884495723593 -34.14881521361368, 57.375 -34 M57.375 -34 C57.375 -34, 57.375 -34, 57.375 -34 M57.375 -34 C57.375 -34, 57.375 -34, 57.375 -34 M57.375 -34 C57.375 -17.42156317246079, 57.375 -0.8431263449215791, 57.375 34 M57.375 -34 C57.375 -9.804800528134546, 57.375 14.390398943730908, 57.375 34 M57.375 34 C57.375 34, 57.375 34, 57.375 34 M57.375 34 C57.375 34, 57.375 34, 57.375 34 M57.375 34 C57.37014169139545 34.117463072231914, 57.365283382790906 34.23492614446383, 57.35792246503335 34.41289672736166 M57.375 34 C57.37119560475749 34.09198179645305, 57.36739120951498 34.183963592906096, 57.35792246503335 34.41289672736166 M57.35792246503335 34.41289672736166 C57.340416946267766 34.55333424859312, 57.32291142750218 34.69377176982458, 57.30680651701361 34.82297295140367 M57.35792246503335 34.41289672736166 C57.342621989294116 34.53564435428169, 57.327321513554885 34.65839198120173, 57.30680651701361 34.82297295140367 M57.30680651701361 34.82297295140367 C57.284505195035905 34.9293328329755, 57.262203873058205 35.035692714547324, 57.22200132969665 35.227427435703994 M57.30680651701361 34.82297295140367 C57.27761804514239 34.962179156963565, 57.24842957327117 35.10138536252345, 57.22200132969665 35.227427435703994 M57.22200132969665 35.227427435703994 C57.175318949417985 35.384230786990315, 57.12863656913932 35.541034138276636, 57.104086208503176 35.62349734602342 M57.22200132969665 35.227427435703994 C57.19431388504848 35.32042792290005, 57.16662644040031 35.41342841009611, 57.104086208503176 35.62349734602342 M57.104086208503176 35.62349734602342 C57.05876172236069 35.73965404898471, 57.0134372362182 35.855810751946, 56.95386663327529 36.008477123264846 M57.104086208503176 35.62349734602342 C57.049261817422774 35.76400021879157, 56.99443742634237 35.904503091559725, 56.95386663327529 36.008477123264846 M56.95386663327529 36.008477123264846 C56.90061887009706 36.11739716376603, 56.84737110691884 36.22631720426721, 56.77236875603245 36.379736965185366 M56.95386663327529 36.008477123264846 C56.901395597930865 36.1158083415871, 56.84892456258645 36.22313955990934, 56.77236875603245 36.379736965185366 M56.77236875603245 36.379736965185366 C56.721460450487385 36.465172125416245, 56.67055214494231 36.55060728564712, 56.560832391312644 36.734740790612136 M56.77236875603245 36.379736965185366 C56.72829903181372 36.453695505145504, 56.68422930759499 36.52765404510564, 56.560832391312644 36.734740790612136 M56.560832391312644 36.734740790612136 C56.50278853264954 36.81603627283802, 56.44474467398643 36.89733175506391, 56.32070254698197 37.07106356344834 M56.560832391312644 36.734740790612136 C56.50195307173975 36.81720640864751, 56.443073752166846 36.89967202668288, 56.32070254698197 37.07106356344834 M56.32070254698197 37.07106356344834 C56.2355888661016 37.17155709656871, 56.15047518522123 37.27205062968909, 56.05361955336566 37.386407858128706 M56.32070254698197 37.07106356344834 C56.238848589754625 37.16770834812428, 56.15699463252729 37.26435313280022, 56.05361955336566 37.386407858128706 M56.05361955336566 37.386407858128706 C55.95311053760055 37.48691687389381, 55.85260152183545 37.58742588965891, 55.761407858128706 37.67861955336566 M56.05361955336566 37.386407858128706 C55.94690558110545 37.493121830388915, 55.840191608845245 37.59983580264912, 55.761407858128706 37.67861955336566 M55.761407858128706 37.67861955336566 C55.684343765787574 37.74388951013991, 55.607279673446435 37.80915946691416, 55.44606356344834 37.94570254698197 M55.761407858128706 37.67861955336566 C55.64237433856691 37.77943580176956, 55.52334081900512 37.88025205017347, 55.44606356344834 37.94570254698197 M55.44606356344834 37.94570254698197 C55.358133499393816 38.00848340602205, 55.2702034353393 38.07126426506213, 55.109740790612136 38.185832391312644 M55.44606356344834 37.94570254698197 C55.36437336315695 38.004028228927, 55.28268316286556 38.06235391087202, 55.109740790612136 38.185832391312644 M55.109740790612136 38.185832391312644 C54.98150601473758 38.26224373219482, 54.85327123886303 38.33865507307699, 54.754736965185366 38.39736875603244 M55.109740790612136 38.185832391312644 C55.021901072489 38.238173502362486, 54.934061354365866 38.29051461341232, 54.754736965185366 38.39736875603244 M54.754736965185366 38.39736875603244 C54.653447481739775 38.44688616717311, 54.552157998294184 38.49640357831378, 54.383477123264846 38.57886663327529 M54.754736965185366 38.39736875603244 C54.633866573518794 38.45645868990601, 54.51299618185222 38.51554862377957, 54.383477123264846 38.57886663327529 M54.383477123264846 38.57886663327529 C54.25977589769135 38.62713500127626, 54.13607467211785 38.67540336927723, 53.99849734602342 38.729086208503176 M54.383477123264846 38.57886663327529 C54.26223619421132 38.626174990595146, 54.14099526515779 38.673483347914996, 53.99849734602342 38.729086208503176 M53.99849734602342 38.729086208503176 C53.90404189683518 38.757206814103924, 53.80958644764694 38.78532741970467, 53.602427435703994 38.84700132969665 M53.99849734602342 38.729086208503176 C53.87254467257945 38.7665839440464, 53.746591999135475 38.804081679589636, 53.602427435703994 38.84700132969665 M53.602427435703994 38.84700132969665 C53.47285970991677 38.874168824883725, 53.34329198412954 38.9013363200708, 53.19797295140367 38.93180651701361 M53.602427435703994 38.84700132969665 C53.484034226837274 38.871825775078605, 53.36564101797055 38.89665022046055, 53.19797295140367 38.93180651701361 M53.19797295140367 38.93180651701361 C53.077129996088715 38.946869575684865, 52.956287040773766 38.96193263435612, 52.78789672736166 38.98292246503335 M53.19797295140367 38.93180651701361 C53.04060337382056 38.95142261440238, 52.88323379623744 38.971038711791145, 52.78789672736166 38.98292246503335 M52.78789672736166 38.98292246503335 C52.645138946688185 38.988826970517785, 52.5023811660147 38.99473147600222, 52.375 39 M52.78789672736166 38.98292246503335 C52.670859819920636 38.98776314733176, 52.55382291247962 38.99260382963018, 52.375 39 M52.375 39 C52.375 39, 52.375 39, 52.375 39 M52.375 39 C52.375 39, 52.375 39, 52.375 39 M52.375 39 C12.33914921548542 39, -27.69670156902916 39, -52.375 39 M52.375 39 C12.473221865293638 39, -27.428556269412724 39, -52.375 39 M-52.375 39 C-52.375 39, -52.375 39, -52.375 39 M-52.375 39 C-52.375 39, -52.375 39, -52.375 39 M-52.375 39 C-52.46373461305919 38.99632990925611, -52.55246922611837 38.99265981851223, -52.78789672736166 38.98292246503335 M-52.375 39 C-52.459597945551955 38.9965010030898, -52.54419589110391 38.9930020061796, -52.78789672736166 38.98292246503335 M-52.78789672736166 38.98292246503335 C-52.919269788940355 38.96654682998516, -53.050642850519054 38.95017119493698, -53.19797295140367 38.93180651701361 M-52.78789672736166 38.98292246503335 C-52.888633661720625 38.97036561926061, -52.98937059607958 38.95780877348788, -53.19797295140367 38.93180651701361 M-53.19797295140367 38.93180651701361 C-53.328401215560326 38.90445858590496, -53.458829479716975 38.877110654796304, -53.602427435703994 38.84700132969665 M-53.19797295140367 38.93180651701361 C-53.35517399608023 38.89884492415779, -53.512375040756794 38.86588333130197, -53.602427435703994 38.84700132969665 M-53.602427435703994 38.84700132969665 C-53.754779510645626 38.80164415180265, -53.90713158558726 38.756286973908644, -53.99849734602342 38.729086208503176 M-53.602427435703994 38.84700132969665 C-53.75791834434132 38.80070968052374, -53.91340925297865 38.75441803135082, -53.99849734602342 38.729086208503176 M-53.99849734602342 38.729086208503176 C-54.10811357527318 38.68631382312238, -54.21772980452294 38.6435414377416, -54.383477123264846 38.57886663327529 M-53.99849734602342 38.729086208503176 C-54.11426193369467 38.68391472622165, -54.230026521365915 38.63874324394013, -54.383477123264846 38.57886663327529 M-54.383477123264846 38.57886663327529 C-54.50245184526423 38.52070343583184, -54.62142656726362 38.4625402383884, -54.754736965185366 38.39736875603245 M-54.383477123264846 38.57886663327529 C-54.500362773392816 38.52172472083835, -54.61724842352078 38.4645828084014, -54.754736965185366 38.39736875603245 M-54.754736965185366 38.39736875603245 C-54.85726588447927 38.336274780946376, -54.95979480377318 38.27518080586031, -55.109740790612136 38.185832391312644 M-54.754736965185366 38.39736875603245 C-54.84446372092275 38.34390321462886, -54.934190476660135 38.29043767322527, -55.109740790612136 38.185832391312644 M-55.109740790612136 38.185832391312644 C-55.208532714971106 38.11529631307627, -55.30732463933008 38.0447602348399, -55.44606356344834 37.94570254698197 M-55.109740790612136 38.185832391312644 C-55.184898020629646 38.13217116048895, -55.260055250647156 38.07850992966525, -55.44606356344834 37.94570254698197 M-55.44606356344834 37.94570254698197 C-55.57181392543944 37.83919742323156, -55.697564287430545 37.732692299481144, -55.761407858128706 37.67861955336566 M-55.44606356344834 37.94570254698197 C-55.52111306701308 37.88213885986403, -55.59616257057783 37.81857517274609, -55.761407858128706 37.67861955336566 M-55.761407858128706 37.67861955336566 C-55.868713749135125 37.57131366235924, -55.976019640141544 37.464007771352826, -56.05361955336566 37.386407858128706 M-55.761407858128706 37.67861955336566 C-55.84131495484626 37.5987124566481, -55.92122205156381 37.51880535993055, -56.05361955336566 37.386407858128706 M-56.05361955336566 37.386407858128706 C-56.14993694989039 37.27268612294337, -56.24625434641513 37.15896438775803, -56.32070254698197 37.07106356344834 M-56.05361955336566 37.386407858128706 C-56.137243727858234 37.2876729818772, -56.220867902350804 37.188938105625695, -56.32070254698197 37.07106356344834 M-56.32070254698197 37.07106356344834 C-56.39102043612264 36.97257723193175, -56.4613383252633 36.87409090041516, -56.560832391312644 36.734740790612136 M-56.32070254698197 37.07106356344834 C-56.41660358786444 36.936745798501754, -56.512504628746896 36.80242803355517, -56.560832391312644 36.734740790612136 M-56.560832391312644 36.734740790612136 C-56.644335544676444 36.59460441775438, -56.72783869804024 36.454468044896636, -56.77236875603244 36.379736965185366 M-56.560832391312644 36.734740790612136 C-56.61446714745109 36.64473005590844, -56.66810190358952 36.55471932120474, -56.77236875603244 36.379736965185366 M-56.77236875603244 36.379736965185366 C-56.832185785916934 36.25737927485625, -56.892002815801426 36.13502158452714, -56.95386663327528 36.008477123264846 M-56.77236875603244 36.379736965185366 C-56.81544527576298 36.29162253570227, -56.858521795493516 36.203508106219175, -56.95386663327528 36.008477123264846 M-56.95386663327528 36.008477123264846 C-56.99862384643154 35.89377421637203, -57.043381059587794 35.77907130947922, -57.104086208503176 35.62349734602342 M-56.95386663327528 36.008477123264846 C-56.99572103472333 35.9012134852097, -57.03757543617137 35.793949847154565, -57.104086208503176 35.62349734602342 M-57.104086208503176 35.62349734602342 C-57.12911879776583 35.539414360872996, -57.15415138702848 35.45533137572258, -57.22200132969665 35.227427435703994 M-57.104086208503176 35.62349734602342 C-57.14120502287196 35.498817446368456, -57.17832383724073 35.374137546713484, -57.22200132969665 35.227427435703994 M-57.22200132969665 35.227427435703994 C-57.25412805823622 35.07420804152751, -57.28625478677579 34.920988647351024, -57.30680651701361 34.82297295140367 M-57.22200132969665 35.227427435703994 C-57.248312573358284 35.10194336069462, -57.274623817019915 34.97645928568524, -57.30680651701361 34.82297295140367 M-57.30680651701361 34.82297295140367 C-57.32178823092145 34.702782582115574, -57.336769944829285 34.58259221282748, -57.35792246503335 34.41289672736166 M-57.30680651701361 34.82297295140367 C-57.319448575469295 34.72155240074452, -57.332090633924985 34.62013185008537, -57.35792246503335 34.41289672736166 M-57.35792246503335 34.41289672736166 C-57.36139517291281 34.32893439197114, -57.364867880792275 34.24497205658062, -57.375 34 M-57.35792246503335 34.41289672736166 C-57.364345266640775 34.25760770178636, -57.370768068248196 34.10231867621107, -57.375 34 M-57.375 34 C-57.375 34, -57.375 34, -57.375 34 M-57.375 34 C-57.375 34, -57.375 34, -57.375 34 M-57.375 34 C-57.375 15.142739481031366, -57.375 -3.714521037937267, -57.375 -34 M-57.375 34 C-57.375 14.494851578849829, -57.375 -5.010296842300342, -57.375 -34 M-57.375 -34 C-57.375 -34, -57.375 -34, -57.375 -34 M-57.375 -34 C-57.375 -34, -57.375 -34, -57.375 -34 M-57.375 -34 C-57.369647896159755 -34.12940194029472, -57.36429579231952 -34.25880388058944, -57.35792246503335 -34.41289672736166 M-57.375 -34 C-57.369052462140374 -34.14379820758057, -57.36310492428075 -34.28759641516114, -57.35792246503335 -34.41289672736166 M-57.35792246503335 -34.41289672736166 C-57.34279265064163 -34.5342752285257, -57.3276628362499 -34.65565372968974, -57.30680651701361 -34.82297295140367 M-57.35792246503335 -34.41289672736166 C-57.34568413084279 -34.511078411705846, -57.333445796652235 -34.60926009605003, -57.30680651701361 -34.82297295140367 M-57.30680651701361 -34.82297295140367 C-57.28051156623023 -34.94837932211359, -57.25421661544685 -35.0737856928235, -57.22200132969665 -35.227427435703994 M-57.30680651701361 -34.82297295140367 C-57.28250303662229 -34.93888156430063, -57.25819955623097 -35.05479017719758, -57.22200132969665 -35.227427435703994 M-57.22200132969665 -35.227427435703994 C-57.182390407898474 -35.3604781766563, -57.1427794861003 -35.49352891760861, -57.104086208503176 -35.62349734602342 M-57.22200132969665 -35.227427435703994 C-57.187799497332485 -35.34230936552036, -57.153597664968316 -35.45719129533671, -57.104086208503176 -35.62349734602342 M-57.104086208503176 -35.62349734602342 C-57.04571184718963 -35.77309801278744, -56.98733748587608 -35.922698679551466, -56.95386663327529 -36.008477123264846 M-57.104086208503176 -35.62349734602342 C-57.04937171073529 -35.76371858636846, -56.9946572129674 -35.9039398267135, -56.95386663327529 -36.008477123264846 M-56.95386663327529 -36.008477123264846 C-56.89529861876013 -36.128279911819796, -56.83673060424497 -36.24808270037475, -56.77236875603245 -36.379736965185366 M-56.95386663327529 -36.008477123264846 C-56.88319305718277 -36.1530422338141, -56.81251948109025 -36.29760734436336, -56.77236875603245 -36.379736965185366 M-56.77236875603245 -36.379736965185366 C-56.72683081373423 -36.45615949300626, -56.681292871436014 -36.53258202082716, -56.560832391312644 -36.734740790612136 M-56.77236875603245 -36.379736965185366 C-56.69409217262351 -36.511102021913636, -56.615815589214584 -36.6424670786419, -56.560832391312644 -36.734740790612136 M-56.560832391312644 -36.734740790612136 C-56.51099648354595 -36.80454032233474, -56.46116057577927 -36.87433985405734, -56.32070254698197 -37.07106356344834 M-56.560832391312644 -36.734740790612136 C-56.50385678799602 -36.814540088133334, -56.44688118467939 -36.89433938565453, -56.32070254698197 -37.07106356344834 M-56.32070254698197 -37.07106356344834 C-56.26000896553441 -37.14272433965149, -56.19931538408686 -37.21438511585463, -56.05361955336566 -37.386407858128706 M-56.32070254698197 -37.07106356344834 C-56.223981536002334 -37.185261845320085, -56.127260525022706 -37.29946012719182, -56.05361955336566 -37.386407858128706 M-56.05361955336566 -37.386407858128706 C-55.98570844939009 -37.454318962104274, -55.91779734541452 -37.52223006607984, -55.761407858128706 -37.67861955336566 M-56.05361955336566 -37.386407858128706 C-55.964879011754896 -37.47514839973947, -55.87613847014413 -37.563888941350235, -55.761407858128706 -37.67861955336566 M-55.761407858128706 -37.67861955336566 C-55.66389017842134 -37.7612128149725, -55.56637249871397 -37.84380607657934, -55.44606356344834 -37.94570254698197 M-55.761407858128706 -37.67861955336566 C-55.67328884705447 -37.753252548695635, -55.58516983598023 -37.82788554402562, -55.44606356344834 -37.94570254698197 M-55.44606356344834 -37.94570254698197 C-55.317451815166024 -38.03752957027179, -55.18884006688371 -38.129356593561624, -55.109740790612136 -38.185832391312644 M-55.44606356344834 -37.94570254698197 C-55.335852729327144 -38.024391570082905, -55.22564189520594 -38.10308059318383, -55.109740790612136 -38.185832391312644 M-55.109740790612136 -38.185832391312644 C-55.016591105624265 -38.24133755583711, -54.9234414206364 -38.29684272036158, -54.754736965185366 -38.39736875603245 M-55.109740790612136 -38.185832391312644 C-55.02463635928427 -38.2365436252071, -54.93953192795641 -38.28725485910155, -54.754736965185366 -38.39736875603245 M-54.754736965185366 -38.39736875603245 C-54.62177927743013 -38.46236780889488, -54.48882158967489 -38.527366861757315, -54.383477123264846 -38.57886663327528 M-54.754736965185366 -38.39736875603245 C-54.643714664680836 -38.45164425150202, -54.5326923641763 -38.50591974697158, -54.383477123264846 -38.57886663327528 M-54.383477123264846 -38.57886663327528 C-54.26749057707596 -38.62412472403915, -54.15150403088708 -38.66938281480301, -53.99849734602342 -38.729086208503176 M-54.383477123264846 -38.57886663327528 C-54.245633392589916 -38.63265342389112, -54.10778966191498 -38.68644021450696, -53.99849734602342 -38.729086208503176 M-53.99849734602342 -38.729086208503176 C-53.885302032584335 -38.76278591341623, -53.77210671914525 -38.79648561832928, -53.602427435703994 -38.84700132969665 M-53.99849734602342 -38.729086208503176 C-53.918554975547984 -38.75288608336744, -53.83861260507255 -38.77668595823172, -53.602427435703994 -38.84700132969665 M-53.602427435703994 -38.84700132969665 C-53.48809062013899 -38.87097523884489, -53.373753804573994 -38.89494914799313, -53.19797295140367 -38.93180651701361 M-53.602427435703994 -38.84700132969665 C-53.4650599132389 -38.875804270265036, -53.32769239077382 -38.90460721083342, -53.19797295140367 -38.93180651701361 M-53.19797295140367 -38.93180651701361 C-53.07841836897569 -38.946708980171984, -52.9588637865477 -38.961611443330355, -52.78789672736166 -38.98292246503335 M-53.19797295140367 -38.93180651701361 C-53.050932907254875 -38.95013503940256, -52.90389286310608 -38.96846356179151, -52.78789672736166 -38.98292246503335 M-52.78789672736166 -38.98292246503335 C-52.680588957415935 -38.987360747228394, -52.57328118747021 -38.99179902942344, -52.375 -39 M-52.78789672736166 -38.98292246503335 C-52.69589878297391 -38.98672752815938, -52.60390083858616 -38.99053259128541, -52.375 -39 M-52.375 -39 C-52.375 -39, -52.375 -39, -52.375 -39 M-52.375 -39 C-52.375 -39, -52.375 -39, -52.375 -39" stroke="#9370DB" stroke-width="1.3" fill="none" stroke-dasharray="0 0" style=""/></g><g class="label" style="" transform="translate(-42.375, -24)"><rect/><foreignObject width="84.75" height="48"><div xmlns="http://www.w3.org/1999/xhtml" style="display: table-cell; white-space: nowrap; line-height: 1.5; max-width: 200px; text-align: center;"><span class="nodeLabel"><p>Router/NAT<br />203.0.113.1</p></span></div></foreignObject></g></g><g class="node default" id="flowchart-Website-2" transform="translate(982.0390625, 113)"><rect class="basic label-container" style="" x="-78.2265625" y="-39" width="156.453125" height="78"/><g class="label" style="" transform="translate(-48.2265625, -24)"><rect/><foreignObject width="96.453125" height="48"><div xmlns="http://www.w3.org/1999/xhtml" style="display: table-cell; white-space: nowrap; line-height: 1.5; max-width: 200px; text-align: center;"><span class="nodeLabel"><p>example.com<br />(Public IP)</p></span></div></foreignObject></g></g></g></g></g></svg>